<svg version="1.1" id="Layer_1" xmlns="http://www.w3.org/2000/svg" xmlns:xlink="http://www.w3.org/1999/xlink" x="0px" y="0px"
	 width="100%" viewBox="0 0 1024 544" enable-background="new 0 0 1024 544" xml:space="preserve">
<path fill="#000000" opacity="1.000000" stroke="none" 
	d="
M539.137695,393.261536 
	C535.887085,393.502106 536.737793,391.219482 536.733154,389.829163 
	C536.666077,369.830933 536.739990,349.832153 536.634277,329.834290 
	C536.618225,326.790405 538.138245,324.889404 540.059814,322.972321 
	C549.850159,313.204926 559.488220,303.279968 569.459534,293.701538 
	C573.223450,290.085938 575.354919,286.345215 574.779663,281.018158 
	C574.308777,276.657745 574.675476,272.785675 579.078857,269.697235 
	C583.317688,266.724152 582.916077,259.652252 579.239014,255.831329 
	C575.543579,251.991333 569.622009,251.732208 565.727295,255.240067 
	C561.620972,258.938538 560.569885,265.684235 564.820557,268.987396 
	C570.097473,273.088135 569.214111,278.130554 569.351013,283.340088 
	C569.408508,285.527618 568.538513,287.078125 567.017944,288.584351 
	C556.719116,298.785797 546.600281,309.171783 536.177917,319.244232 
	C532.428345,322.867981 530.819885,326.696716 530.881897,331.977997 
	C531.118774,352.139435 530.940369,372.306000 530.883606,392.470551 
	C530.864075,399.397034 529.369202,401.128967 522.156006,402.854828 
	C520.315125,401.352692 520.851013,399.212372 520.849854,397.300659 
	C520.815979,342.971619 520.774353,288.642456 520.848877,234.313492 
	C520.868896,219.740601 531.393066,209.394073 546.057007,208.632919 
	C556.224121,208.105164 565.381592,211.561066 574.581848,215.010422 
	C585.646301,219.158691 596.599976,223.619965 608.438049,225.229416 
	C612.765381,225.817719 617.080872,226.000534 621.363525,225.246582 
	C623.896362,224.800690 626.264160,224.602280 628.668457,225.743790 
	C631.310059,226.998016 633.565674,226.134308 635.361267,224.035248 
	C636.916809,222.216782 637.216492,220.120758 635.982910,218.012741 
	C634.522156,215.516327 632.065857,214.598892 629.520020,215.465637 
	C613.582153,220.891861 599.013123,215.352463 584.446167,209.993881 
	C575.246155,206.609573 566.554016,201.853958 556.768494,200.057800 
	C547.524475,198.361008 538.478699,198.797058 529.858276,202.676590 
	C526.784973,204.059723 524.965454,203.908188 523.623535,200.617935 
	C522.812012,198.627975 521.678528,196.737747 520.475708,194.946411 
	C518.704773,192.309174 518.584045,190.084946 520.481873,187.227646 
	C523.733643,182.331894 523.312134,178.004791 519.614136,174.544510 
	C516.460388,171.593536 512.785034,170.526413 508.670715,172.811417 
	C504.631378,175.054794 502.511993,179.737000 504.506409,184.963455 
	C506.935455,191.328812 505.416626,196.593887 501.988617,201.855179 
	C500.977936,203.406387 500.070404,204.446671 497.991089,203.462067 
	C481.982391,195.881653 466.614868,199.001831 451.333435,206.046005 
	C439.680878,211.417435 427.792450,216.228226 414.886810,217.858383 
	C409.170227,218.580460 403.567505,218.374695 398.209534,216.154602 
	C395.232971,214.921234 392.655518,214.996414 390.584869,217.609985 
	C388.937958,219.688721 388.905823,221.939636 390.690308,223.996048 
	C392.762939,226.384537 395.161224,227.350769 398.200226,225.580139 
	C399.018677,225.103287 400.155396,224.709991 401.036835,224.872086 
	C419.631897,228.291077 436.020813,220.740936 452.699768,214.599167 
	C461.144989,211.489349 469.582214,208.466537 478.820770,208.660889 
	C494.685760,208.994690 505.182098,219.330109 505.196411,235.125519 
	C505.245697,289.454529 505.229492,343.783600 505.207764,398.112640 
	C505.207062,399.860992 505.769867,401.794312 504.234314,403.262512 
	C497.424164,401.772491 495.650696,399.732422 495.594513,393.428314 
	C495.407349,372.435577 495.134460,351.443024 495.095032,330.450043 
	C495.087646,326.506561 494.022675,323.510834 491.199982,320.700623 
	C480.809601,310.356201 470.598297,299.831635 460.341248,289.353668 
	C454.946777,283.842987 455.128174,275.455688 460.703094,270.355713 
	C464.543152,266.842743 464.795471,260.514465 461.263092,256.311157 
	C457.895111,252.303436 451.764008,251.645020 447.785522,254.863815 
	C443.525940,258.309937 442.099976,265.916260 446.347321,269.014740 
	C451.844666,273.025116 451.616638,278.199677 451.604370,283.492065 
	C451.595764,287.215607 453.020599,289.723724 455.505157,292.205841 
	C465.761139,302.451477 475.878540,312.835571 486.090271,323.125763 
	C488.023926,325.074310 489.439545,327.001953 489.425781,330.022827 
	C489.333801,350.187225 489.408997,370.352325 489.397919,390.517212 
	C489.397308,391.615784 489.748322,392.876373 488.630676,393.732605 
	C480.157349,390.818451 478.591736,388.680756 478.615906,380.393616 
	C478.645538,370.227936 478.504425,360.060425 478.656403,349.897034 
	C478.713379,346.086487 477.653320,343.017822 474.602173,340.741119 
	C471.992676,338.793976 470.986816,336.625946 471.530182,333.086456 
	C472.464355,327.001556 467.416931,321.516815 461.736053,321.597839 
	C456.498169,321.672577 451.665344,326.794739 451.762634,332.168213 
	C451.873138,338.267212 456.791016,342.364471 463.241577,341.731689 
	C469.359589,341.131531 472.953094,344.194031 473.020111,350.336639 
	C473.118286,359.334808 473.060333,368.334808 473.044342,377.333954 
	C473.042023,378.639069 473.250824,380.018982 472.174225,381.207184 
	C470.443512,381.947327 469.452179,380.496033 468.390259,379.619537 
	C454.735107,368.348511 443.858917,354.776062 435.046967,339.460083 
	C433.145142,336.154510 433.319031,333.733246 435.634186,330.490936 
	C441.931915,321.671143 443.680328,312.006989 439.139893,301.707397 
	C430.271820,281.590973 421.391541,261.479767 412.604401,241.327988 
	C410.870697,237.352081 408.281036,235.701675 403.992462,236.865845 
	C403.555725,239.370300 404.857391,241.226364 405.694672,243.152557 
	C414.193756,262.705017 422.188019,282.505219 431.491150,301.669312 
	C437.108856,313.241577 434.127899,322.327789 426.674011,330.921387 
	C408.997467,351.300690 371.742493,347.397278 358.500305,323.973083 
	C354.758575,317.354309 353.984406,310.985931 357.373138,303.593842 
	C367.020264,282.549896 375.974518,261.189117 385.319031,240.004913 
	C386.711304,236.848557 386.638000,234.821686 383.766632,232.291718 
	C377.986511,227.198822 377.199615,219.240326 381.102325,212.689835 
	C384.955750,206.222031 392.876282,203.133499 400.136047,205.267883 
	C410.712524,208.377426 410.984436,208.365112 410.489594,197.453293 
	C410.265320,192.508377 411.795227,191.054520 416.664673,190.341507 
	C449.712494,185.502380 480.564667,174.423721 508.844818,156.528961 
	C512.072327,154.486710 514.391602,154.341125 517.797607,156.492966 
	C545.634521,174.079758 575.980957,185.021469 608.529907,189.844421 
	C615.468506,190.872543 616.088745,191.419525 616.114258,198.779404 
	C616.147461,208.344528 616.147461,208.344528 625.316711,205.343521 
	C632.721191,202.920135 640.751709,205.658035 644.615112,211.923172 
	C648.883606,218.844971 648.196533,226.923233 642.290466,232.454102 
	C639.699524,234.880478 639.653625,236.767960 640.982910,239.776108 
	C650.205322,260.646057 658.947449,281.734375 668.511963,302.444000 
	C672.325378,310.700989 671.651245,317.989532 667.063171,325.123108 
	C658.705200,338.118073 646.148010,344.206268 631.108582,344.026642 
	C615.996887,343.846191 603.157837,338.129883 595.104126,324.425720 
	C591.358215,318.051697 590.535889,311.582275 593.758728,304.445984 
	C602.669983,284.713898 611.196350,264.807922 619.874573,244.970612 
	C620.341919,243.902237 620.882935,242.858627 621.255676,241.758087 
	C621.796692,240.160416 622.397705,238.349457 620.336243,237.433441 
	C618.569458,236.648392 616.636963,236.797821 615.288025,238.355484 
	C614.439514,239.335251 613.893616,240.613907 613.359680,241.823685 
	C604.886841,261.020599 596.739380,280.368622 587.871582,299.380829 
	C582.473694,310.953552 584.089417,321.351624 590.873779,331.419556 
	C592.585205,333.959259 592.914856,335.949585 591.412476,338.677582 
	C582.621765,354.638763 571.248962,368.416901 557.091248,379.889099 
	C556.350037,380.489716 555.671326,381.370605 554.112305,380.886017 
	C553.106873,378.379120 553.707581,375.546936 553.672668,372.814423 
	C553.574707,365.149536 553.576660,357.482330 553.640076,349.816864 
	C553.689514,343.833740 556.769470,341.148041 562.668396,341.752319 
	C569.233826,342.424896 574.449524,338.160370 574.619446,331.980591 
	C574.761780,326.807068 569.676331,321.554840 564.467224,321.495300 
	C559.024231,321.433075 553.784302,327.060425 554.488953,333.022919 
	C554.883545,336.361786 553.826416,338.481018 551.501892,340.333801 
	C548.770447,342.510925 548.014404,345.296204 548.063599,348.705231 
	C548.203003,358.368805 547.561035,368.072937 548.236450,377.690155 
	C548.766846,385.241119 546.290222,390.177917 539.137695,393.261536 
M637.649475,258.761688 
	C635.586731,254.896347 634.901367,250.293228 630.888733,246.204681 
	C621.926941,266.555176 613.233459,286.296295 604.654968,305.776337 
	C606.661072,307.513397 608.170959,307.575592 609.662109,307.577972 
	C623.958313,307.600983 638.255127,307.684631 652.550293,307.565826 
	C657.716858,307.522919 658.452820,306.250824 656.371399,301.453461 
	C650.287354,287.430695 644.098938,273.453247 637.649475,258.761688 
M368.725739,305.466492 
	C370.025970,308.257874 372.635834,307.589050 374.831757,307.599670 
	C388.331085,307.665070 401.831024,307.634827 415.330597,307.593140 
	C417.263611,307.587189 419.368256,307.946198 421.338379,305.434174 
	C412.773163,285.878387 404.073669,266.016052 395.374176,246.153702 
	C394.911133,246.166153 394.448090,246.178619 393.985046,246.191086 
	C385.585907,265.715302 377.186768,285.239502 368.725739,305.466492 
M557.418030,232.329468 
	C552.552185,226.645370 547.190247,225.832535 542.304321,230.038223 
	C538.180054,233.588318 537.400635,240.991302 541.797546,244.186874 
	C546.284729,247.447968 546.405762,251.364868 546.265747,255.911041 
	C546.158081,259.406433 545.823242,262.970428 546.328491,266.394867 
	C547.824097,276.530792 544.872986,284.594482 536.347717,290.539093 
	C534.734863,291.663788 533.511169,293.343933 532.097107,294.757019 
	C529.819092,297.033508 529.557861,299.482849 531.549072,302.980011 
	C538.095459,296.383514 544.298584,290.166687 550.455017,283.903992 
	C551.871704,282.462799 551.669189,280.526581 551.670410,278.695648 
	C551.676208,269.698853 551.705017,260.701935 551.663879,251.705353 
	C551.653442,249.430511 552.132874,247.722137 554.140869,246.146515 
	C559.122986,242.237137 559.776794,239.246689 557.418030,232.329468 
M486.736633,239.891815 
	C487.180725,233.660828 484.641144,229.403366 479.529266,227.809113 
	C475.470367,226.543259 470.480103,228.864227 468.217224,233.070480 
	C465.913269,237.353165 467.031067,242.206284 471.627899,245.825394 
	C473.710144,247.464722 474.484283,249.203934 474.445435,251.741089 
	C474.343536,258.396515 474.917267,265.101501 474.295868,271.699554 
	C473.562317,279.488373 475.697021,285.398346 481.908112,290.369751 
	C486.594543,294.120819 490.500916,298.846466 495.124725,303.511932 
	C496.389160,299.036438 495.694519,296.106781 492.870209,293.605072 
	C490.382904,291.401825 488.282135,288.744324 485.709229,286.659454 
	C481.196259,283.002625 479.269897,278.571503 479.773468,272.717438 
	C480.185577,267.926208 479.845734,263.071747 479.871704,258.245483 
	C479.899841,253.022446 478.833099,247.480240 484.656219,244.105408 
	C485.624176,243.544418 485.926178,241.834305 486.736633,239.891815 
z"/>
<path fill="#000000" opacity="1.000000" stroke="none" 
	d="
M602.295105,164.620514 
	C613.024353,166.573822 623.349792,168.386581 633.849365,168.734253 
	C637.763367,168.863861 639.570984,170.341278 639.427917,174.486420 
	C639.203857,180.975937 639.381226,187.479233 639.382141,193.976685 
	C639.382507,196.125244 639.141846,198.450211 636.205933,197.581741 
	C633.601318,196.811264 629.201721,199.371368 628.747803,194.172531 
	C628.487793,191.195297 628.483521,188.164337 628.710083,185.183853 
	C629.002686,181.335785 627.195618,179.778763 623.602905,179.363251 
	C599.658508,176.594009 576.538513,170.611267 554.233459,161.460876 
	C541.237549,156.129425 529.014343,149.347778 517.377441,141.544998 
	C514.068359,139.326218 511.687683,139.465912 508.450134,141.661865 
	C476.322235,163.453278 440.426331,174.746796 402.173096,179.230194 
	C398.900696,179.613754 397.871124,180.956268 397.998749,183.997513 
	C398.124329,186.989410 397.988770,189.993088 397.941406,192.991180 
	C397.898560,195.702072 396.868286,197.147980 393.797302,197.375244 
	C386.751465,197.896683 386.751343,198.059555 386.712250,190.801880 
	C386.685303,185.803940 386.942719,180.790115 386.623779,175.812180 
	C386.305878,170.850296 388.420013,169.036346 393.202911,168.692413 
	C406.811951,167.713852 420.410400,166.266464 433.715668,163.230286 
	C451.189819,159.242813 467.479736,152.026093 483.230347,143.573898 
	C492.339172,138.685867 501.180023,133.350861 509.471527,127.169296 
	C511.965393,125.310074 513.978394,125.051888 516.607117,126.978203 
	C542.255554,145.773300 570.842346,157.951355 602.295105,164.620514 
z"/>
<path fill="#000000" opacity="1.000000" stroke="none" 
	d="
M535.110107,424.171936 
	C529.019043,427.326477 523.254028,430.312012 517.506226,433.330109 
	C514.817078,434.742126 512.199158,434.847565 509.383423,433.534180 
	C472.317444,416.243988 440.144165,393.077484 418.082916,357.724304 
	C417.465973,356.735687 416.848419,355.745178 416.285095,354.725708 
	C413.141998,349.037659 414.849609,345.690399 421.369934,344.484741 
	C423.931335,344.011078 424.476074,346.035614 425.338806,347.495117 
	C430.946625,356.982025 437.183411,365.989655 444.574097,374.204803 
	C462.239838,393.841248 483.967743,407.813995 507.195068,419.836670 
	C511.972260,422.309418 516.037598,420.833862 519.935669,418.943909 
	C553.124573,402.852570 581.344421,381.019897 600.191956,348.540161 
	C602.990784,343.716858 607.970947,343.498718 611.495972,347.971100 
	C613.042786,349.933655 611.534119,351.440491 610.723938,352.958313 
	C605.201294,363.304352 598.182617,372.608154 590.393860,381.315735 
	C574.683044,398.879974 556.154846,412.864227 535.110107,424.171936 
z"/>
<path fill="#000000" opacity="1.000000" stroke="none" 
	d="
M456.948914,258.781158 
	C459.473511,263.299683 458.831329,266.419464 455.372406,267.584503 
	C452.229248,268.643158 450.224182,267.045532 449.097107,264.288361 
	C448.354156,262.470764 448.757843,260.647308 450.224640,259.249268 
	C452.150909,257.413361 454.334106,257.312073 456.948914,258.781158 
z"/>
<path fill="#000000" opacity="1.000000" stroke="none" 
	d="
M464.154541,327.490845 
	C467.384888,330.306061 467.444183,333.207245 464.731689,335.794525 
	C462.634583,337.794830 460.052490,337.465179 458.112396,335.366302 
	C455.982269,333.061798 456.294586,330.499847 458.352020,328.271027 
	C459.851135,326.647095 461.785828,326.460815 464.154541,327.490845 
z"/>
<path fill="#000000" opacity="1.000000" stroke="none" 
	d="
M567.242310,336.175476 
	C563.223450,337.627289 560.685425,336.453613 559.835266,332.643921 
	C559.322449,330.345825 560.364136,328.451477 562.576782,327.393250 
	C564.633240,326.409821 566.565308,326.874878 567.948181,328.506439 
	C570.055176,330.992401 569.968201,333.587646 567.242310,336.175476 
z"/>
<path fill="#000000" opacity="1.000000" stroke="none" 
	d="
M574.912109,266.795227 
	C571.447876,268.461731 568.919983,267.625183 567.762268,264.416229 
	C566.708679,261.495850 568.030396,259.058777 570.932800,258.052826 
	C573.461670,257.176392 575.513855,258.413605 576.673645,260.762848 
	C577.789734,263.023865 576.937988,264.940369 574.912109,266.795227 
z"/>
<path fill="#000000" opacity="1.000000" stroke="none" 
	d="
M553.220215,240.215668 
	C550.999817,242.673691 548.630371,242.919464 546.264221,241.461212 
	C544.432861,240.332504 543.637756,238.416290 544.249878,236.279800 
	C545.039368,233.524399 546.991516,231.957870 549.860229,232.683273 
	C553.605103,233.630249 554.898315,236.155243 553.220215,240.215668 
z"/>
<path fill="#000000" opacity="1.000000" stroke="none" 
	d="
M481.834839,239.448792 
	C479.328369,243.319382 476.274506,243.600845 473.365143,240.910309 
	C471.084778,238.801468 471.532684,236.103348 473.641602,233.871826 
	C475.186951,232.236618 477.203522,232.065247 479.123352,232.918198 
	C481.755554,234.087646 482.477509,236.354294 481.834839,239.448792 
z"/>
</svg>